<?xml version="1.0" encoding="UTF-8" standalone="no"?>
<svg
   xmlns:dc="http://purl.org/dc/elements/1.1/"
   xmlns:cc="http://creativecommons.org/ns#"
   xmlns:rdf="http://www.w3.org/1999/02/22-rdf-syntax-ns#"
   xmlns:svg="http://www.w3.org/2000/svg"
   xmlns="http://www.w3.org/2000/svg"
   xmlns:sodipodi="http://sodipodi.sourceforge.net/DTD/sodipodi-0.dtd"
   xmlns:inkscape="http://www.inkscape.org/namespaces/inkscape"
   width="23.402761pt"
   height="10.197661pt"
   viewBox="0 0 23.402761 10.197662"
   version="1.1"
   id="svg55"
   sodipodi:docname="automate.svg"
   inkscape:version="0.92.2 (5c3e80d, 2017-08-06)">
  <metadata
     id="metadata59">
    <rdf:RDF>
      <cc:Work
         rdf:about="">
        <dc:format>image/svg+xml</dc:format>
        <dc:type
           rdf:resource="http://purl.org/dc/dcmitype/StillImage" />
        <dc:title></dc:title>
      </cc:Work>
    </rdf:RDF>
  </metadata>
  <sodipodi:namedview
     pagecolor="#ffffff"
     bordercolor="#666666"
     borderopacity="1"
     objecttolerance="10"
     gridtolerance="10"
     guidetolerance="10"
     inkscape:pageopacity="0"
     inkscape:pageshadow="2"
     inkscape:window-width="640"
     inkscape:window-height="480"
     id="namedview57"
     showgrid="false"
     fit-margin-top="0"
     fit-margin-left="0"
     fit-margin-right="0"
     fit-margin-bottom="0"
     inkscape:zoom="13.414235"
     inkscape:cx="16.287427"
     inkscape:cy="6.4891671"
     inkscape:window-x="0"
     inkscape:window-y="120"
     inkscape:window-maximized="0"
     inkscape:current-layer="svg55" />
  <defs
     id="defs20">
    <clipPath
       id="clip1">
      <path
         d="M 0,0 H 15 V 9.734375 H 0 Z m 0,0"
         id="path2"
         inkscape:connector-curvature="0" />
    </clipPath>
    <clipPath
       id="clip2">
      <path
         d="M 5,0 H 24.433594 V 9.734375 H 5 Z m 0,0"
         id="path5"
         inkscape:connector-curvature="0" />
    </clipPath>
    <clipPath
       id="clip3">
      <path
         d="M 0,0 H 21 V 9.734375 H 0 Z m 0,0"
         id="path8"
         inkscape:connector-curvature="0" />
    </clipPath>
    <clipPath
       id="clip4">
      <path
         d="M 0,0 H 21 V 9.734375 H 0 Z m 0,0"
         id="path11"
         inkscape:connector-curvature="0" />
    </clipPath>
    <clipPath
       id="clip5">
      <path
         d="m 6,7 h 4 V 9.734375 H 6 Z m 0,0"
         id="path14"
         inkscape:connector-curvature="0" />
    </clipPath>
    <clipPath
       id="clip6">
      <path
         d="M 12,0 H 24.433594 V 9.734375 H 12 Z m 0,0"
         id="path17"
         inkscape:connector-curvature="0" />
    </clipPath>
  </defs>
  <g
     id="surface1"
     transform="translate(-9.2999637e-4,0.46328667)">
    <path
       style="fill:#00a657;fill-opacity:1;fill-rule:nonzero;stroke:none"
       d="m 7.222656,4.867188 c 0,-1.925782 -1.5625,-3.488282 -3.488281,-3.488282 -1.925781,0 -3.484375,1.5625 -3.484375,3.488282 0,1.925781 1.558594,3.488281 3.484375,3.488281 1.925781,0 3.488281,-1.5625 3.488281,-3.488281 z m 0,0"
       id="path22"
       inkscape:connector-curvature="0" />
    <g
       clip-path="url(#clip1)"
       id="g26"
       style="clip-rule:nonzero">
      <path
         style="fill:none;stroke:#383838;stroke-width:0.49814001;stroke-linecap:butt;stroke-linejoin:miter;stroke-miterlimit:10;stroke-opacity:1"
         d="m 3.486656,-1.875e-4 c 0,1.9257815 -1.5625,3.4882815 -3.488281,3.4882815 -1.925781,0 -3.484375,-1.5625 -3.484375,-3.4882815 0,-1.9257815 1.558594,-3.4882815 3.484375,-3.4882815 1.925781,0 3.488281,1.5625 3.488281,3.4882815 z m 0,0"
         transform="matrix(1,0,0,-1,3.736,4.867)"
         id="path24"
         inkscape:connector-curvature="0" />
    </g>
    <path
       style="fill:#00a657;fill-opacity:1;fill-rule:nonzero;stroke:none"
       d="m 19.675781,4.867188 c 0,-1.925782 -1.558593,-3.488282 -3.484375,-3.488282 -1.929687,0 -3.488281,1.5625 -3.488281,3.488282 0,1.925781 1.558594,3.488281 3.488281,3.488281 1.925782,0 3.484375,-1.5625 3.484375,-3.488281 z m 0,0"
       id="path28"
       inkscape:connector-curvature="0" />
    <g
       clip-path="url(#clip2)"
       id="g32"
       style="clip-rule:nonzero">
      <path
         style="fill:none;stroke:#383838;stroke-width:0.49814001;stroke-linecap:butt;stroke-linejoin:miter;stroke-miterlimit:10;stroke-opacity:1"
         d="m 15.939781,-1.875e-4 c 0,1.9257815 -1.558594,3.4882815 -3.484375,3.4882815 -1.929687,0 -3.488281,-1.5625 -3.488281,-3.4882815 0,-1.9257815 1.558594,-3.4882815 3.488281,-3.4882815 1.925781,0 3.484375,1.5625 3.484375,3.4882815 z m 0,0"
         transform="matrix(1,0,0,-1,3.736,4.867)"
         id="path30"
         inkscape:connector-curvature="0" />
    </g>
    <g
       clip-path="url(#clip3)"
       id="g36"
       style="clip-rule:nonzero">
      <path
         style="fill:none;stroke:#006633;stroke-width:0.49814001;stroke-linecap:butt;stroke-linejoin:miter;stroke-miterlimit:10;stroke-opacity:1"
         d="M 2.642906,2.640437 C 4.619469,4.617 7.834313,4.617 9.443687,3.011531"
         transform="matrix(1,0,0,-1,3.736,4.867)"
         id="path34"
         inkscape:connector-curvature="0" />
    </g>
    <path
       style="fill:none;stroke:#006633;stroke-width:0.3985;stroke-linecap:round;stroke-linejoin:round;stroke-miterlimit:10;stroke-opacity:1"
       d="M -1.285342,1.711158 C -1.177628,1.073106 -9.76951e-4,0.106346 0.32219,-0.00138164 0.00178216,-0.106338 -1.177658,-1.070302 -1.28539,-1.713875"
       transform="matrix(0.70712,0.7071,0.7071,-0.70712,13.1794,1.85714)"
       id="path38"
       inkscape:connector-curvature="0" />
    <g
       clip-path="url(#clip4)"
       id="g42"
       style="clip-rule:nonzero">
      <path
         style="fill:none;stroke:#006633;stroke-width:0.49814001;stroke-linecap:butt;stroke-linejoin:miter;stroke-miterlimit:10;stroke-opacity:1"
         d="M 9.810875,-2.640813 C 7.834313,-4.617375 4.619469,-4.617375 3.010094,-3.008"
         transform="matrix(1,0,0,-1,3.736,4.867)"
         id="path40"
         inkscape:connector-curvature="0" />
    </g>
    <g
       clip-path="url(#clip5)"
       id="g46"
       style="clip-rule:nonzero">
      <path
         style="fill:none;stroke:#006633;stroke-width:0.3985;stroke-linecap:round;stroke-linejoin:round;stroke-miterlimit:10;stroke-opacity:1"
         d="M -1.283086,1.713943 C -1.178134,1.073129 -0.00148341,0.10637 0.321683,-0.00135777 0.0012757,-0.106314 -1.178165,-1.070278 -1.285896,-1.713851"
         transform="matrix(-0.70712,-0.7071,-0.7071,0.70712,6.74604,7.87686)"
         id="path44"
         inkscape:connector-curvature="0" />
    </g>
    <g
       clip-path="url(#clip6)"
       id="g50"
       style="clip-rule:nonzero">
      <path
         style="fill:none;stroke:#006633;stroke-width:0.49814001;stroke-linecap:butt;stroke-linejoin:miter;stroke-miterlimit:10;stroke-opacity:1"
         d="m 16.068687,0.968562 c 4.378907,1.171875 4.378907,-3.109375 0.503907,-2.074218"
         transform="matrix(1,0,0,-1,3.736,4.867)"
         id="path48"
         inkscape:connector-curvature="0" />
    </g>
    <path
       style="fill:none;stroke:#006633;stroke-width:0.3985;stroke-linecap:round;stroke-linejoin:round;stroke-miterlimit:10;stroke-opacity:1"
       d="M -1.28557,1.711768 C -1.178327,1.070505 1.26452e-4,0.106809 0.319695,-0.00129981 8.83171e-4,-0.106904 -1.177282,-1.072401 -1.283751,-1.714421"
       transform="matrix(-0.96782,-0.25932,-0.25932,0.96782,20.30907,5.97088)"
       id="path52"
       inkscape:connector-curvature="0" />
  </g>
</svg>
