<?xml version="1.0" encoding="UTF-8" standalone="no"?>
<svg
   xmlns:dc="http://purl.org/dc/elements/1.1/"
   xmlns:cc="http://creativecommons.org/ns#"
   xmlns:rdf="http://www.w3.org/1999/02/22-rdf-syntax-ns#"
   xmlns:svg="http://www.w3.org/2000/svg"
   xmlns="http://www.w3.org/2000/svg"
   xmlns:sodipodi="http://sodipodi.sourceforge.net/DTD/sodipodi-0.dtd"
   xmlns:inkscape="http://www.inkscape.org/namespaces/inkscape"
   width="67.03125pt"
   height="60.211582pt"
   viewBox="0 0 67.031252 60.21158"
   version="1.1"
   id="svg61"
   sodipodi:docname="graphe.svg"
   inkscape:version="0.92.2 (5c3e80d, 2017-08-06)">
  <metadata
     id="metadata65">
    <rdf:RDF>
      <cc:Work
         rdf:about="">
        <dc:format>image/svg+xml</dc:format>
        <dc:type
           rdf:resource="http://purl.org/dc/dcmitype/StillImage" />
        <dc:title></dc:title>
      </cc:Work>
    </rdf:RDF>
  </metadata>
  <sodipodi:namedview
     pagecolor="#ffffff"
     bordercolor="#666666"
     borderopacity="1"
     objecttolerance="10"
     gridtolerance="10"
     guidetolerance="10"
     inkscape:pageopacity="0"
     inkscape:pageshadow="2"
     inkscape:window-width="640"
     inkscape:window-height="480"
     id="namedview63"
     showgrid="false"
     fit-margin-top="0"
     fit-margin-left="0"
     fit-margin-right="0"
     fit-margin-bottom="0"
     inkscape:zoom="2.9396133"
     inkscape:cx="44.687332"
     inkscape:cy="40.139916"
     inkscape:window-x="0"
     inkscape:window-y="120"
     inkscape:window-maximized="0"
     inkscape:current-layer="svg61" />
  <defs
     id="defs20">
    <clipPath
       id="clip1">
      <path
         d="M 0,0 H 41 V 60.210938 H 0 Z m 0,0"
         id="path2"
         inkscape:connector-curvature="0" />
    </clipPath>
    <clipPath
       id="clip2">
      <path
         d="M 9,0 H 67.03125 V 60.210938 H 9 Z m 0,0"
         id="path5"
         inkscape:connector-curvature="0" />
    </clipPath>
    <clipPath
       id="clip3">
      <path
         d="M 0,19 H 58 V 60.210938 H 0 Z m 0,0"
         id="path8"
         inkscape:connector-curvature="0" />
    </clipPath>
    <clipPath
       id="clip4">
      <path
         d="M 26,19 H 67.03125 V 60.210938 H 26 Z m 0,0"
         id="path11"
         inkscape:connector-curvature="0" />
    </clipPath>
    <clipPath
       id="clip5">
      <path
         d="M 5,12 H 62 V 60.210938 H 5 Z m 0,0"
         id="path14"
         inkscape:connector-curvature="0" />
    </clipPath>
    <clipPath
       id="clip6">
      <path
         d="M 22,12 H 67.03125 V 60.210938 H 22 Z m 0,0"
         id="path17"
         inkscape:connector-curvature="0" />
    </clipPath>
  </defs>
  <g
     id="surface1"
     transform="translate(0,6.4598356e-4)">
    <path
       style="fill:#00a657;fill-opacity:1;fill-rule:nonzero;stroke:#383838;stroke-width:1.74347997;stroke-linecap:butt;stroke-linejoin:miter;stroke-miterlimit:10;stroke-opacity:1"
       d="M 7.472656,-7.5e-4 C 7.472656,4.128156 4.125,7.471906 0,7.471906 c -4.125,0 -7.472656,-3.34375 -7.472656,-7.472656 0,-4.125 3.347656,-7.472656 7.472656,-7.472656 4.125,0 7.472656,3.347656 7.472656,7.472656 z m 0,0"
       transform="matrix(1,0,0,-1,25.125,8.343)"
       id="path22"
       inkscape:connector-curvature="0" />
    <path
       style="fill:#006633;fill-opacity:1;fill-rule:nonzero;stroke:none"
       d="m 15.816406,30.105469 c 0,-4.125 -3.347656,-7.472657 -7.472656,-7.472657 -4.125,0 -7.472656,3.347657 -7.472656,7.472657 0,4.128906 3.347656,7.472656 7.472656,7.472656 4.125,0 7.472656,-3.34375 7.472656,-7.472656 z m 0,0"
       id="path24"
       inkscape:connector-curvature="0" />
    <g
       clip-path="url(#clip1)"
       id="g28"
       style="clip-rule:nonzero">
      <path
         style="fill:none;stroke:#383838;stroke-width:1.74347997;stroke-linecap:butt;stroke-linejoin:miter;stroke-miterlimit:10;stroke-opacity:1"
         d="m -9.308594,-21.762469 c 0,4.125 -3.347656,7.472657 -7.472656,7.472657 -4.125,0 -7.472656,-3.347657 -7.472656,-7.472657 0,-4.128906 3.347656,-7.472656 7.472656,-7.472656 4.125,0 7.472656,3.34375 7.472656,7.472656 z m 0,0"
         transform="matrix(1,0,0,-1,25.125,8.343)"
         id="path26"
         inkscape:connector-curvature="0" />
    </g>
    <path
       style="fill:#00a657;fill-opacity:1;fill-rule:nonzero;stroke:none"
       d="m 49.378906,30.105469 c 0,-4.125 -3.347656,-7.472657 -7.472656,-7.472657 -4.125,0 -7.472656,3.347657 -7.472656,7.472657 0,4.128906 3.347656,7.472656 7.472656,7.472656 4.125,0 7.472656,-3.34375 7.472656,-7.472656 z m 0,0"
       id="path30"
       inkscape:connector-curvature="0" />
    <g
       clip-path="url(#clip2)"
       id="g34"
       style="clip-rule:nonzero">
      <path
         style="fill:none;stroke:#383838;stroke-width:1.74347997;stroke-linecap:butt;stroke-linejoin:miter;stroke-miterlimit:10;stroke-opacity:1"
         d="m 24.253906,-21.762469 c 0,4.125 -3.347656,7.472657 -7.472656,7.472657 -4.125,0 -7.472656,-3.347657 -7.472656,-7.472657 0,-4.128906 3.347656,-7.472656 7.472656,-7.472656 4.125,0 7.472656,3.34375 7.472656,7.472656 z m 0,0"
         transform="matrix(1,0,0,-1,25.125,8.343)"
         id="path32"
         inkscape:connector-curvature="0" />
    </g>
    <path
       style="fill:#00a657;fill-opacity:1;fill-rule:nonzero;stroke:none"
       d="m 32.597656,51.867188 c 0,-4.125 -3.347656,-7.472657 -7.472656,-7.472657 -4.125,0 -7.472656,3.347657 -7.472656,7.472657 0,4.128906 3.347656,7.472656 7.472656,7.472656 4.125,0 7.472656,-3.34375 7.472656,-7.472656 z m 0,0"
       id="path36"
       inkscape:connector-curvature="0" />
    <g
       clip-path="url(#clip3)"
       id="g40"
       style="clip-rule:nonzero">
      <path
         style="fill:none;stroke:#383838;stroke-width:1.74347997;stroke-linecap:butt;stroke-linejoin:miter;stroke-miterlimit:10;stroke-opacity:1"
         d="m 7.472656,-43.524187 c 0,4.125 -3.347656,7.472656 -7.472656,7.472656 -4.125,0 -7.472656,-3.347656 -7.472656,-7.472656 0,-4.128907 3.347656,-7.472657 7.472656,-7.472657 4.125,0 7.472656,3.34375 7.472656,7.472657 z m 0,0"
         transform="matrix(1,0,0,-1,25.125,8.343)"
         id="path38"
         inkscape:connector-curvature="0" />
    </g>
    <path
       style="fill:#006633;fill-opacity:1;fill-rule:nonzero;stroke:none"
       d="m 66.160156,51.867188 c 0,-4.125 -3.347656,-7.472657 -7.472656,-7.472657 -4.125,0 -7.472656,3.347657 -7.472656,7.472657 0,4.128906 3.347656,7.472656 7.472656,7.472656 4.125,0 7.472656,-3.34375 7.472656,-7.472656 z m 0,0"
       id="path42"
       inkscape:connector-curvature="0" />
    <g
       clip-path="url(#clip4)"
       id="g46"
       style="clip-rule:nonzero">
      <path
         style="fill:none;stroke:#383838;stroke-width:1.74347997;stroke-linecap:butt;stroke-linejoin:miter;stroke-miterlimit:10;stroke-opacity:1"
         d="m 41.035156,-43.524187 c 0,4.125 -3.347656,7.472656 -7.472656,7.472656 -4.125,0 -7.472656,-3.347656 -7.472656,-7.472656 0,-4.128907 3.347656,-7.472657 7.472656,-7.472657 4.125,0 7.472656,3.34375 7.472656,7.472657 z m 0,0"
         transform="matrix(1,0,0,-1,25.125,8.343)"
         id="path44"
         inkscape:connector-curvature="0" />
    </g>
    <path
       style="fill:none;stroke:#383838;stroke-width:1.74347997;stroke-linecap:butt;stroke-linejoin:miter;stroke-miterlimit:10;stroke-opacity:1"
       d="m -5.097656,-6.610125 -6.585938,-8.542969"
       transform="matrix(1,0,0,-1,25.125,8.343)"
       id="path48"
       inkscape:connector-curvature="0" />
    <path
       style="fill:none;stroke:#383838;stroke-width:1.74347997;stroke-linecap:butt;stroke-linejoin:miter;stroke-miterlimit:10;stroke-opacity:1"
       d="m 5.097656,-6.610125 6.585938,-8.542969"
       transform="matrix(1,0,0,-1,25.125,8.343)"
       id="path50"
       inkscape:connector-curvature="0" />
    <g
       clip-path="url(#clip5)"
       id="g54"
       style="clip-rule:nonzero">
      <path
         style="fill:none;stroke:#383838;stroke-width:1.74347997;stroke-linecap:butt;stroke-linejoin:miter;stroke-miterlimit:10;stroke-opacity:1"
         d="M 11.683594,-28.371844 5.097656,-36.914812"
         transform="matrix(1,0,0,-1,25.125,8.343)"
         id="path52"
         inkscape:connector-curvature="0" />
    </g>
    <g
       clip-path="url(#clip6)"
       id="g58"
       style="clip-rule:nonzero">
      <path
         style="fill:none;stroke:#383838;stroke-width:1.74347997;stroke-linecap:butt;stroke-linejoin:miter;stroke-miterlimit:10;stroke-opacity:1"
         d="m 21.878906,-28.371844 6.585938,-8.542968"
         transform="matrix(1,0,0,-1,25.125,8.343)"
         id="path56"
         inkscape:connector-curvature="0" />
    </g>
  </g>
</svg>
